<svg xmlns="http://www.w3.org/2000/svg" viewBox="0 0 221.75001 277.99999" height="278" width="221.75">
 <defs>
  <filter height="1.153" y="-.076" width="1.07" x="-.035" id="filter5824" color-interpolation-filters="sRGB">
   <feGaussianBlur stdDeviation="1.50268"/>
  </filter>
  <filter height="1.096" y="-.048" width="1.096" x="-.048" id="filter5846" color-interpolation-filters="sRGB">
   <feGaussianBlur stdDeviation="1.83707"/>
  </filter>
  <linearGradient gradientUnits="userSpaceOnUse" y2="704.36" x2="65.19" y1="976.51" x1="-195.7" id="linearGradient5884">
   <stop stop-color="#35297d"/>
   <stop offset="1" stop-color="#35297d" stop-opacity="0"/>
  </linearGradient>
  <filter height="1.089" y="-.044" width="1.105" x="-.052" id="filter5962" color-interpolation-filters="sRGB">
   <feGaussianBlur stdDeviation="2.86383"/>
  </filter>
  <filter height="1.099" y="-.049" width="1.144" x="-.072" id="filter5966" color-interpolation-filters="sRGB">
   <feGaussianBlur stdDeviation="2.86383"/>
  </filter>
 </defs>
 <g transform="translate(0-774.36)">
  <g transform="scale(-1 1)">
   <rect width="213.75" height="270" x="-217.75" y="778.36" fill="#fff" stroke="#fff" stroke-linecap="round" stroke-width="8"/>
   <rect y="779.36" x="-221.42" height="270" width="213.75" fill="url(#linearGradient5884)"/>
  </g>
  <path d="m6.697 840.7l.164.197 66.906 80.58c29.956 36.08 81.959-8.683 51.675-45.2l-80.1-96.59" fill="none" filter="url(#filter5962)" fill-rule="evenodd" stroke="#000" stroke-linejoin="round" stroke-linecap="round" stroke-width="6"/>
  <rect width="74" height="74" x="72" y="475.75" transform="matrix(.95948-.28178.28178.95948-110.35 459.32)" filter="url(#filter5846)"/>
  <path d="m7.913 837.76l67.854 81.72c29.956 36.08 81.959-8.683 51.675-45.2l-80.1-96.59" fill="none" fill-rule="evenodd" stroke="#fff" stroke-linejoin="round" stroke-linecap="round" stroke-width="6"/>
  <rect transform="matrix(.95948-.28178.28178.95948 0 0)" y="879.83" x="-167.94" height="74" width="74" fill="#fea41e"/>
  <path d="m23.259 839.91l56.06 67.68c22.516 27.18 54.4-.887 32.07-27.779l-83.15-100.13" fill="none" filter="url(#filter5966)" fill-rule="evenodd" stroke="#000" stroke-linejoin="round" stroke-linecap="round" stroke-width="6"/>
  <rect width="103.04" height="47.23" x="27.997" y="988.38" filter="url(#filter5824)"/>
  <rect y="984.38" x="23.997" height="47.23" width="103.04" fill="#fea41e"/>
  <path d="m25.26 837.91l56.06 67.68c22.516 27.18 54.4-.887 32.07-27.779l-83.15-100.13" fill="none" fill-rule="evenodd" stroke="#fff" stroke-linejoin="round" stroke-linecap="round" stroke-width="6"/>
  <path d="m58.53 1005.02q0 4.063-1.542 7.285-1.542 3.203-3.898 4.922-1.966 1.465-4.288 1.894-2.305.41-4.915.41h-7.898v-29.08h7.831q2.661 0 4.983.391 2.322.391 4.356 1.895 2.492 1.836 3.932 4.961 1.441 3.105 1.441 7.324m-6.509-.058q0-2.871-.864-4.902-.847-2.051-2.627-3.203-1.288-.82-2.712-.898-1.407-.078-3.373-.078h-.119v18.203h.119q2.136 0 3.593-.078 1.475-.098 2.797-1.055 1.559-1.133 2.373-3.125.814-1.992.814-4.863"/>
  <path d="m70.01 1019.92c0 2.474-.638 4.401-1.915 5.781-1.277 1.393-2.927 2.09-4.949 2.09-1.726.001-3.222-.179-4.881-.508v-5.04c1.01.112 1.879.366 2.864.469 1.141 0 1.915-.404 2.322-1.211.418-.807.627-2.135.627-3.984v-19.921h5.932zm0-25.449h-6.322v-5.332h6.322z"/>
  <path d="m95.99 990.45l-8.678 29.08h-6.61l-8.678-29.08h6.576l5.492 19.707 5.492-19.707h6.407"/>
  <path d="m115.7 1019.53h-5.932v-2.422q-1.542 1.484-2.831 2.266-1.288.762-3.068.762-2.831 0-4.424-2.051-1.576-2.07-1.576-6.211v-14.277h5.966v10.879q0 1.699.068 2.773.085 1.074.373 1.816.271.684.831 1.035.576.351 1.593.351.627 0 1.475-.351.864-.352 1.593-.957v-15.547h5.932v21.934"/>
  <rect transform="scale(-1 1)" y="778.36" x="-217.75" height="270" width="213.75" fill="none" stroke="#fff" stroke-linecap="round" stroke-width="8"/>
 </g>
</svg>
